<?xml version="1.0" standalone="no"?>
<!DOCTYPE svg PUBLIC "-//W3C//DTD SVG 1.1//EN" "http://www.w3.org/Graphics/SVG/1.1/DTD/svg11.dtd" >
<svg xmlns="http://www.w3.org/2000/svg">
<metadata>
Created by FontForge 20120731 at Tue Nov  8 13:45:15 2016
 By admin
</metadata>
<defs>
<font id="iconfont" horiz-adv-x="1024" >
  <font-face 
    font-family="iconfont"
    font-weight="500"
    font-stretch="normal"
    units-per-em="1024"
    panose-1="2 0 6 3 0 0 0 0 0 0"
    ascent="896"
    descent="-128"
    x-height="792"
    bbox="0 -128 1229 896"
    underline-thickness="0"
    underline-position="0"
    unicode-range="U+0078-E662"
  />
<missing-glyph 
 />
    <glyph glyph-name=".notdef" 
 />
    <glyph glyph-name=".notdef" 
 />
    <glyph glyph-name=".null" horiz-adv-x="0" 
 />
    <glyph glyph-name="nonmarkingreturn" horiz-adv-x="341" 
 />
    <glyph glyph-name="x" unicode="x" horiz-adv-x="1001" 
d="M281 543q-27 -1 -53 -1h-83q-18 0 -36.5 -6t-32.5 -18.5t-23 -32t-9 -45.5v-76h912v41q0 16 -0.5 30t-0.5 18q0 13 -5 29t-17 29.5t-31.5 22.5t-49.5 9h-133v-97h-438v97zM955 310v-52q0 -23 0.5 -52t0.5 -58t-10.5 -47.5t-26 -30t-33 -16t-31.5 -4.5q-14 -1 -29.5 -0.5
t-29.5 0.5h-32l-45 128h-439l-44 -128h-29h-34q-20 0 -45 1q-25 0 -41 9.5t-25.5 23t-13.5 29.5t-4 30v167h911zM163 247q-12 0 -21 -8.5t-9 -21.5t9 -21.5t21 -8.5q13 0 22 8.5t9 21.5t-9 21.5t-22 8.5zM316 123q-8 -26 -14 -48q-5 -19 -10.5 -37t-7.5 -25t-3 -15t1 -14.5
t9.5 -10.5t21.5 -4h37h67h81h80h64h36q23 0 34 12t2 38q-5 13 -9.5 30.5t-9.5 34.5q-5 19 -11 39h-368zM336 498v228q0 11 2.5 23t10 21.5t20.5 15.5t34 6h188q31 0 51.5 -14.5t20.5 -52.5v-227h-327z" />
    <glyph glyph-name="gicon-borrowing" unicode="&#xe604;" 
d="M511 -124l-1 1l-501 502l1 1l504 502l501 -504zM13 379l498 -499l500 498l-497 500z" />
    <glyph glyph-name="gicon-assistant" unicode="&#xe605;" 
d="M780 -124q-52 0 -99 24q-40 21 -73 58q-29 33 -45.5 68.5t-16.5 58.5q-1 49 -1 266v2h305v-1q44 -34 87 -85q37 -45 58 -89q26 -54 25 -103q-3 -91 -99 -157v0q-73 -42 -141 -42zM548 350q0 -218 1 -265q0 -23 16.5 -58t44.5 -67q72 -81 170 -81q67 0 139 41
q95 66 98 155q2 88 -83 190q-41 50 -85 85h-301zM244 -124v0q-68 0 -141 42v0q-96 66 -98 157q-2 49 24 103q21 44 59 89q42 51 86 85v1h305v-2q0 -217 -1 -266q0 -23 -16 -58.5t-46 -68.5q-33 -37 -73 -58q-47 -24 -99 -24zM105 -80q72 -41 139 -41q98 0 170 81
q28 32 44.5 67t16.5 58q1 48 1 265h-301q-44 -35 -85 -85q-85 -102 -83 -190q3 -89 98 -155zM850 415h-304v2q0 217 1 266q0 23 16 58.5t45 68.5q33 37 74 58q46 24 98 24q69 0 141 -42v0q96 -66 99 -157q2 -49 -25 -103q-21 -44 -58 -89q-43 -51 -86 -85zM549 418h300
q45 35 86 85q85 102 82 190q-2 89 -97 155q-72 41 -140 41q-97 0 -169 -81q-29 -32 -45 -67t-17 -58v-265zM479 415h-304l-1 1q-43 33 -86 85q-37 45 -58 89q-26 54 -25 103q3 91 99 157v0q73 42 141 42q52 0 98 -24q41 -21 74 -58q29 -33 45 -68.5t17 -58.5v-266v-2z
M176 418h301q0 217 -1 265q-1 23 -17 58t-44 67q-73 81 -170 81q-68 0 -140 -41q-95 -66 -97 -155q-3 -88 82 -190q41 -50 86 -85z" />
    <glyph glyph-name="gicon-college" unicode="&#xe609;" 
d="M824 88q-201 -134 -429 -80q-48 11 -95 31.5t-64.5 31t-28.5 17.5v204h-3v-205l1 -1q8 -6 24.5 -16t65.5 -31.5t99 -33.5q64 -15 127 -15q36 0 72 5q122 17 234 91v1v205h-3v-204zM528 750l1 -3l-521 -251l-2 2zM529 750l491 -254l-1 -3l-491 254zM1019 496l1 -3
l-492 -211l-2 3zM8 498l519 -213l-1 -3l-519 213zM922 452h3v-278h-3v278z" />
    <glyph glyph-name="gicon-group-stage" unicode="&#xe60b;" 
d="M913 675h-103v115h-3v-115h-556v119h-3v-119h-131q-45 0 -76.5 -31.5t-31.5 -76.5v-579q0 -45 31.5 -76.5t76.5 -31.5h796q45 0 76.5 31.5t31.5 76.5v579q0 45 -31.5 76.5t-76.5 31.5zM117 672h131v-82h3v82h556v-86h3v86h103q43 0 74 -30.5t31 -74.5v-214h-1006v214
q0 44 31 74.5t74 30.5zM913 -117h-796q-43 0 -74 31t-31 74v362h1006v-362q0 -43 -31 -74t-74 -31zM115 196h164v-3h-164v3zM117 41h165v-3h-165v3zM428 197h165v-3h-165v3zM431 42h165v-3h-165v3zM738 197h165v-3h-165v3zM741 42h165v-3h-165v3z" />
    <glyph glyph-name="gicon-sms" unicode="&#xe60c;" 
d="M914 12h-798q-41 0 -71 30t-30 72v486q0 41 30 71t71 30h798q42 0 72 -30t30 -71v-486q0 -42 -30 -72t-72 -30zM116 698q-40 0 -69 -29t-29 -69v-486q0 -41 29 -70t69 -29h798q41 0 70 29t29 70v486q0 40 -29 69t-70 29h-798zM185 523l348 -254l-1 -3l-348 254zM870 517
l1 -3l-338 -248l-1 3z" />
    <glyph glyph-name="gicon-word" unicode="&#xe60d;" 
d="M387 125q-78 0 -149 30q-69 29 -122.5 82.5t-82.5 122.5q-30 71 -30 149t30 149q29 69 82.5 122.5t122.5 82.5q71 30 149 30t149 -30q69 -29 122.5 -82.5t82.5 -122.5q30 -71 30 -149t-30 -149q-29 -69 -82.5 -122.5t-122.5 -82.5q-71 -30 -149 -30zM387 890
q-103 0 -191 -51t-139 -139t-51 -191t51 -191t139 -139t191 -51t191 51t139 139t51 191t-51 191t-139 139t-191 51zM729 170l291 -291l-3 -2l-291 291z" />
    <glyph glyph-name="gicon-personal-center" unicode="&#xe60e;" 
d="M520 644zM272 644.5q0 -102.5 72.5 -175.5t175.5 -73t175.5 73t72.5 175.5t-72.5 175t-175.5 72.5t-175.5 -72.5t-72.5 -175zM1024 -128q1 14 1 28q0 102 -40.5 196t-109 161.5t-163 107.5t-199 40t-199 -40t-163 -107.5t-109 -161.5t-40.5 -196q0 -14 1 -28h1021z" />
    <glyph glyph-name="gicon-message" unicode="&#xe60f;" 
d="M511.5 778q-137.5 0 -254 -50.5t-184.5 -137.5t-68 -189.5t68 -189.5t184.5 -137t254 -50t254 50t184.5 137t68 189.5t-68 189.5t-184.5 137.5t-254 50.5zM328 298q-40 0 -68.5 27.5t-28.5 66t28.5 66.5t68.5 28t68 -28t28 -66.5t-28 -66t-68 -27.5zM712.5 288
q-39.5 0 -68 28t-28.5 66.5t28.5 66t68 27.5t68 -27.5t28.5 -66t-28.5 -66.5t-68 -28zM207 132l-70 -200l376 133l-306 45v22z" />
    <glyph glyph-name="gicon-foot-friend" unicode="&#xe610;" 
d="M512.5 -124q-103.5 0 -198.5 40q-91 39 -161.5 109.5t-109.5 161.5q-40 95 -40 198.5t40 198.5q39 91 109.5 161.5t161.5 109.5q95 40 198.5 40t198.5 -40q91 -39 161.5 -109.5t109.5 -161.5q40 -95 40 -198.5t-40 -198.5q-39 -91 -109.5 -161.5t-161.5 -109.5
q-95 -40 -198.5 -40zM512.5 892q-102.5 0 -196.5 -40t-162 -108t-108 -162t-40 -196.5t40 -196.5t108 -162t162 -108t196.5 -40t196.5 40t162 108t108 162t40 196.5t-40 196.5t-108 162t-162 108t-196.5 40zM522.5 216q-69.5 0 -118.5 49t-49 118.5t49 118.5t118.5 49
t118.5 -49t49 -118.5t-49 -118.5t-118.5 -49zM522.5 548q-68.5 0 -116.5 -48t-48 -116.5t48 -116.5t116.5 -48t116.5 48t48 116.5t-48 116.5t-116.5 48zM30 542h436v-2h-436v2zM280 840l310 -302l-2 -3l-310 303zM397 495l2 -2l-338 -336l-2 2zM357 377l6 -474h-3l-6 474h3z
M412 263l308 -338l-3 -2l-308 338zM522 219h466v-3h-466v3zM683 866h3v-442h-3v442zM972 593l1 -3l-286 -230l-1 3z" />
    <glyph glyph-name="gicon-foot-order" unicode="&#xe612;" 
d="M736 -123h-431q-70 0 -120 47.5t-50 113.5v689q0 67 50 114t120 47h431q71 0 121 -47t50 -114v-689q0 -66 -50 -113.5t-121 -47.5zM305 885q-69 0 -118 -46t-49 -112v-689q0 -65 49 -111.5t118 -46.5h431q70 0 119 46.5t49 111.5v689q0 66 -49 112t-119 46h-431zM232 654
h327v-2h-327v2zM238 479h587v-3h-587v3zM243 290h587v-3h-587v3zM243 90h587v-3h-587v3z" />
    <glyph glyph-name="gicon-foot-home-now" unicode="&#xe613;" 
d="M755 579q0 -74 -71 -126q-57 -41 -134 -47l-11 -292q-1 -9 -8 -15.5t-16 -6t-15 7.5t-6 16l11 289q-84 5 -145 48q-71 52 -71 126q0 9 7 15.5t16 6.5t15.5 -6.5t6.5 -15.5q0 -54 55.5 -92.5t133.5 -37.5h2l1.5 0.5t2.5 0.5q1 -1 3 -1q75 3 127 40.5t52 89.5q0 9 6.5 16
t15.5 7q10 0 16 -7t6 -16zM531 532q8 0 14 -5.5t6 -13.5t-6 -14t-14 -6t-13.5 6t-5.5 14t5.5 13.5t13.5 5.5zM632 363l-8 -157q-1 -10 -7.5 -16t-16 -5.5t-15.5 7.5t-6 16l8 157q0 9 7.5 15.5t16.5 6t15 -7.5t6 -16zM565.5 530q-0.5 -16 -11.5 -26.5t-27 -10t-26.5 11.5
t-10 27t11.5 26.5t27 10t26.5 -11.5t10 -27zM908 424q-7 -108 -88 -237q-67 -106 -163 -195q-41 -38 -77 -63q-35 -24 -56 -28q-5 -1 -8 -1h-1q-1 1 -2 1q-2 0 -4 1q-8 3 -22 11q-27 17 -64 49q-89 76 -163 175q-92 121 -122 228q-36 129 14 257q47 123 159 189
q55 32 119 44q63 12 137 3q133 -18 224 -103q87 -83 111 -211q10 -56 6 -120q0 -3 2 -4t4.5 0t2.5 4q9 139 -51 247q-59 107 -173 160q-57 26 -124 35q-71 10 -136 -2q-129 -22 -217 -120q-86 -96 -99 -232q-6 -68 8 -131q12 -55 44 -117q53 -105 151 -213q40 -44 82 -82
q38 -34 69 -55q29 -20 44 -22q8 -1 21 4q12 4 28 13q32 19 73 53q41 36 83 82q97 106 150 216q41 87 47 164q0 2 -2 3.5t-4.5 0t-2.5 -3.5z" />
    <glyph glyph-name="gicon-foot-home-now1" unicode="&#xe614;" 
d="M781 582q0 -76 -73 -130q-59 -42 -140 -48l-11 -303q-1 -10 -8 -16.5t-16.5 -6t-16 7.5t-6.5 17l12 300q-87 4 -150 49q-73 54 -73 130q0 10 6.5 17t16 7t16.5 -7t7 -17q0 -56 57.5 -95.5t137.5 -38.5h2q1 0 2.5 0.5t2.5 0.5q1 -1 3 -1q77 3 131 42t54 92q0 10 6.5 17
t16.5 7t16.5 -7t6.5 -17zM549 534q8 0 14 -6t6 -14t-6 -14.5t-14 -6.5q-9 0 -14.5 6.5t-5.5 14.5t5.5 14t14.5 6zM653 359l-8 -162q-1 -10 -8 -16.5t-16.5 -6t-16 7.5t-6.5 17l9 162q0 9 7.5 16t17 6.5t15.5 -7.5t6 -17zM582.5 531q-0.5 -16 -12 -27t-28 -11t-27.5 12
t-10.5 28t12 27.5t28 11t27.5 -12.5t10.5 -28zM942 422q-8 -110 -88 -239q-66 -107 -163 -201q-42 -39 -80 -67q-37 -26 -61 -34q-12 -4 -19 -3t-18 7q-24 13 -60 42q-83 68 -161 164q-96 116 -138 225q-23 61 -28 121q-5 70 11 136q31 131 131 215q102 85 240 89
q140 5 251 -65q105 -65 152 -182q38 -94 31 -208q-1 -2 1 -2t2 2q10 139 -48 248q-57 108 -168 164q-55 28 -120 39q-71 13 -137 6q-131 -15 -225 -105q-93 -89 -118 -220q-13 -67 -5 -137q7 -54 32 -116q44 -106 140 -221q78 -94 160 -160q35 -28 58 -39q11 -6 17 -7
q8 -1 20 3q24 8 61 34t78 66q95 90 163 197q80 126 91 236q1 5 1 12q1 2 -1 2t-2 -2z" />
    <glyph glyph-name="gicon-slide-about" unicode="&#xe615;" 
d="M506 651q0 -6 -4.5 -11t-11.5 -5t-11.5 5t-4.5 11v5q0 7 4.5 11.5t11.5 4.5t11.5 -4.5t4.5 -11.5v-5zM495 74q0 -6 -6.5 -6t-6.5 6v462q0 7 6.5 7t6.5 -7v-462z" />
    <glyph glyph-name="gicon-slide-set" unicode="&#xe616;" 
d="M545 -122h-73q-18 0 -30 12t-12 30v91q-69 16 -127 55l-62 -62q-12 -12 -29.5 -12t-29.5 12l-52 52q-12 12 -12 29.5t12 29.5l63 64q-36 57 -50 124h-94q-18 0 -30 12t-12 30v73q0 18 12 30t30 12h94q14 68 52 126l-68 67q-12 13 -12 30t12 30l53 52q12 12 29.5 12
t29.5 -12l67 -67q57 38 125 53v92q0 18 12 30t30 12h73q18 0 30 -12t12 -30v-90q71 -14 131 -52l62 62q13 12 30 12t30 -12l52 -52q12 -12 12 -29.5t-12 -29.5l-62 -62q40 -60 54 -131h96q18 0 30 -12t12 -30v-73q0 -18 -12 -30t-30 -12h-96q-15 -71 -55 -131l63 -63
q30 -29 0 -59l-52 -52q-12 -12 -29.5 -12t-29.5 12l-65 64q-60 -38 -130 -52v-89q0 -18 -12 -30t-30 -12zM303 69h1q59 -40 127 -55h1v-94q0 -16 11.5 -27.5t28.5 -11.5h73q17 0 28 11.5t11 27.5v91h2q70 14 131 53l1 1l66 -66q11 -12 27 -12t28 12l52 52q28 28 0 55l-65 65
l1 1q41 60 56 131v1h98q16 0 27.5 11.5t11.5 28.5v73q0 17 -11.5 28t-27.5 11h-98v2q-15 71 -55 131l-1 1l64 64q11 11 11 27t-11 28l-52 52q-12 11 -28 11t-28 -11l-64 -64l-1 1q-60 39 -131 53h-2v92q0 16 -11 27.5t-28 11.5h-73q-17 0 -28.5 -11.5t-11.5 -27.5v-94h-1
q-68 -15 -126 -54h-1l-68 68q-12 11 -28 11t-27 -11l-53 -52q-11 -12 -11 -28t11 -28l69 -68v-1q-38 -59 -53 -127v-2h-96q-17 0 -28 -11t-11 -28v-73q0 -17 11 -28t28 -11h96v-2q14 -67 51 -125l1 -1l-65 -65q-11 -11 -11 -27t11 -28l52 -52q12 -11 28 -11t27 11z
M522.5 145q-95.5 0 -163 68t-67.5 163.5t67.5 163t163 67.5t163.5 -67.5t68 -163t-68 -163.5t-163.5 -68zM523 604q-94 0 -161 -67t-67 -161t67 -161t161 -67t161 67t67 161t-67 161t-161 67z" />
    <glyph glyph-name="gicon-slide-wallet" unicode="&#xe617;" 
d="M1005 141v-141q0 -31 -21.5 -52.5t-52.5 -21.5h-842q-31 0 -52.5 21.5t-21.5 52.5v785q0 31 21.5 52.5t52.5 21.5h842q31 0 52.5 -21.5t21.5 -52.5v-161h3v161q0 32 -22.5 54.5t-54.5 22.5h-842q-32 0 -54.5 -22.5t-22.5 -54.5v-785q0 -32 22.5 -54.5t54.5 -22.5h842
q32 0 54.5 22.5t22.5 54.5v141h-3zM1008 244h-450v1q-52 0 -89.5 38t-37.5 90.5t37.5 90t89.5 38.5v0h2h448v-258zM561 247h444v252h-445v0q-52 0 -89 -37t-37 -89t37 -88.5t89 -37.5h1v0zM575 375zM535 374.5q0 -16.5 12 -28.5t28.5 -12t28.5 12t12 28.5t-12 28.5t-28.5 12
t-28.5 -12t-12 -28.5z" />
    <glyph glyph-name="gicon-slide-integral" unicode="&#xe618;" 
d="M517 404q-208 0 -355 65q-69 31 -107 70q-40 42 -40 87.5t40 86.5q38 40 107 70q147 65 355 65t355 -65q70 -30 108 -70q40 -41 40 -86.5t-40 -87.5q-38 -39 -108 -70q-147 -65 -355 -65zM517.5 845q-135.5 0 -250.5 -29t-182 -79.5t-67 -110t67 -110t182 -80
t250.5 -29.5t250.5 29.5t182 80t67 110t-67 110t-182 79.5t-250.5 29zM972 458q-20 21 -49 40v-4q86 -55 86 -123q0 -59 -67 -109.5t-182 -80t-250.5 -29.5t-250.5 29.5t-182 80t-67 109.5q0 71 93 128v3q-34 -20 -56 -44q-40 -41 -40 -86.5t40 -87.5q38 -39 108 -70
q147 -65 354.5 -65t354.5 65q70 31 108 70q40 42 40 87.5t-40 86.5zM978 217q-18 19 -45 37v-4q82 -54 82 -120q0 -59 -67 -109.5t-182 -80t-250.5 -29.5t-250.5 29.5t-182 80t-67 109.5q0 63 76 116v4q-23 -16 -39 -33q-40 -41 -40 -86.5t40 -87.5q38 -39 108 -70
q147 -65 354.5 -65t354.5 65q70 31 108 70q40 42 40 87.5t-40 86.5z" />
    <glyph glyph-name="gicon-slide-pushoff" unicode="&#xe619;" horiz-adv-x="1025" 
d="M436 -45q-117 5 -215 66.5t-155 163t-57 219.5q0 92 35.5 175t96 143.5t143.5 96t175 35.5q86 0 166 -32v4q-79 31 -166 31q-92 0 -176 -35q-82 -35 -144.5 -97.5t-97.5 -144.5q-35 -84 -35 -176t35 -176q35 -81 97.5 -144t144.5 -97q73 -31 153 -35v3zM299 530l171 -168
l-2 -2l-171 168zM468 362l2 -2l-174 -129l-2 2zM1025 -54h-1l-602 6l1 2q5 10 14 25t28 44t39 49.5t34 22.5q40 6 134 6l3 167q-33 46 -58 102q-23 51 -30 93q-9 52 9 87q31 64 146 67q6 1 11 1q132 0 148 -97q11 -69 -37 -176q-15 -33 -31.5 -61.5t-22.5 -34.5v-145
q103 -5 123 -9q25 -5 54 -38q38 -45 38 -109v-2zM427 -46l596 -5q-1 62 -39 106q-27 32 -52 37q-20 4 -124 10h-1v149h1q2 2 10.5 15t22 38t24.5 51q49 113 30 180q-24 83 -153 80q-113 -4 -144 -66q-31 -63 21 -178q26 -58 58 -102l1 -1v0l-3 -169h-2q-93 0 -134 -6
q-18 -3 -45.5 -37t-41.5 -57.5t-25 -44.5z" />
    <glyph glyph-name="gicon-slide-task" unicode="&#xe61a;" 
d="M509 620h3v-320h-3v320zM510 302h332v-3h-332v3zM762 -56q-116 -67 -250 -67q-103 0 -196.5 40t-161.5 108t-108 161.5t-40 196t40 196t108 161.5t161.5 108t196 40t196 -40t161.5 -108t108 -161.5t40 -196.5q0 -106 -42 -202h3q1 2 2 5q40 94 40 197.5t-40 197.5
q-39 92 -109 162t-162 109q-94 40 -197.5 40t-197.5 -40q-92 -39 -162 -109t-109 -162q-40 -94 -40 -197.5t40 -197.5q39 -92 109 -162t162 -109q94 -40 197.5 -40t197.5 40q28 12 53 26v4z" />
    <glyph glyph-name="gicon-slide-task1" unicode="&#xe61c;" 
d="M542.5 397q-101.5 0 -173.5 71.5t-72 173.5t72 173.5t173.5 71.5t173.5 -71.5t72 -173.5t-72 -173.5t-173.5 -71.5zM542.5 885q-100.5 0 -171.5 -71.5t-71 -171.5t71 -171.5t171.5 -71.5t171.5 71.5t71 171.5t-71 171.5t-171.5 71.5zM540 399h-14q-107 0 -205 -41
q-94 -40 -166.5 -112.5t-112.5 -166.5q-41 -97 -41 -203h3q0 105 41.5 201.5t111.5 166t166.5 111t202.5 41.5h14v3zM767 -124l-4 5q-13 12 -47 39q-32 24 -56 43q-26 20 -40 32t-38 35.5t-36.5 42.5t-22.5 46t-10 54q0 68 44.5 111t100.5 43q66 0 109 -59q44 59 110 59
q56 0 100.5 -43t44.5 -110q0 -28 -11 -56.5t-25 -48.5t-38 -43.5t-37.5 -34.5t-35.5 -28q-16 -12 -31 -24q-55 -42 -72 -58zM658 314q-51 0 -92 -39.5t-41 -101.5q0 -31 12.5 -60t38 -56.5t43 -43t49.5 -40.5q24 -19 55 -43q33 -25 44 -36q16 15 69 56q17 13 31 23
q31 24 52 42.5t44 44.5t34.5 55t11.5 59q0 62 -40.5 101t-91.5 39q-64 0 -104 -61l-6 -8l-5 8q-41 61 -104 61z" />
    <glyph glyph-name="gicon-slide-qrcode" unicode="&#xe61d;" 
d="M0 896v-397h371v397h-371zM314 557h-256v281h256v-281zM653 896v-397h371v397h-371zM966 557h-256v281h256v-281zM0 269v-397h371v397h-371zM314 -70h-256v281h256v-281zM0 410h198v-58h-198v58zM826 410h198v-58h-198v58zM486 582v-172h-147v-52h147v-147h52v371h-52z
M486 896h58v-173h-58v173zM486 45h58v-173h-58v173zM966 269v-339h-313v-58h371v397h-58zM851 269h-198v-199h57v141h141v58z" />
    <glyph glyph-name="gicon-gender-woman" unicode="&#xe61e;" 
d="M515 221q-138 0 -235.5 97.5t-97.5 235.5t97.5 235.5t235.5 97.5t235.5 -97.5t97.5 -235.5t-97.5 -235.5t-235.5 -97.5zM515.5 884q-89.5 0 -165.5 -44t-120.5 -120t-44.5 -165.5t44.5 -165.5t120.5 -120.5t165.5 -44.5t165.5 44.5t120 120.5t44 165.5t-44 165.5
t-120 120t-165.5 44zM308 89h462v-3h-462v3zM520 226h2v-354h-2v354z" />
    <glyph glyph-name="gicon-gender-man" unicode="&#xe61f;" 
d="M586.5 449q96.5 -98 96 -236t-98.5 -235t-236 -96.5t-235 99t-96 236t99 234.5t236 96.5t234.5 -98.5zM115 -17.5q63 -63.5 148 -86.5t170 -1t148.5 85t86.5 148t1 170t-84.5 148.5t-147.5 86.5t-170.5 1t-149 -85t-86.5 -147.5t-1 -170t85 -149zM796 871h206v-3h-206v3z
M1002 867h3v-205h-3v205zM1001 869l2 -3l-428 -407l-2 2z" />
    <glyph glyph-name="gicon-legalize-guide" unicode="&#xe621;" 
d="M514 257h276v-3h-276v3zM496 152h432v-3h-432v3zM528 426h13v-20h86v37h-104v11h116v-67h-12v8h-86v-42q0 -13 12 -13h71q13 0 15.5 9t3.5 24q6 -3 13 -5q-2 -15 -5 -24q-4 -16 -24 -16h-77q-22 0 -22 23v75zM717 378q1 -6 3 -11q-15 -12 -29 -24l-7 -7l-8 8q4 5 4 13v49
h-19v10h31v-59q10 9 25 21zM683 461q14 -14 24 -26l-10 -8q-10 13 -23 27zM746 462h12v-37q8 -66 47 -89q-5 -6 -9 -11q-31 21 -42 69q-8 -44 -45 -72q-3 4 -8 9q45 32 45 95v36zM854 376q1 -5 3 -12q-18 -18 -27 -28l-8 9q4 7 4 15v45h-17v10h29v-56q6 7 16 17zM823 461
q17 -17 24 -25l-10 -8q-10 12 -23 26zM846 340h20v80h11v-80h23v105h-47v11h97v-11h-39v-43h34v-11h-34v-51h41v-11h-106v11zM962 644h-403v-3h403q19 0 32.5 -12t13.5 -29v-599q0 -17 -13.5 -29t-32.5 -12h-890q-19 0 -32 12t-13 29v599q0 17 13 29t32 12h388v3h-388
q-20 0 -34 -12.5t-14 -31.5v-599q0 -18 14 -31t34 -13h890q20 0 34.5 13t14.5 31v599q0 19 -14.5 31.5t-34.5 12.5zM546 587h-73q-4 0 -7.5 3.5t-3.5 8.5v169q0 4 3.5 7.5t7.5 3.5h73q5 0 8.5 -3.5t3.5 -7.5v-169q0 -5 -3.5 -8.5t-8.5 -3.5zM473 776q-8 0 -8 -8v-169
q0 -9 8 -9h73q9 0 9 9v169q0 8 -9 8h-73zM473 288l-45 157q-3 11 -13 11q-9 0 -13 -8v0l-81 -152q-14 8 -30 13q38 23 38 67q0 33 -23 56t-56 23t-56 -23t-23 -56q0 -43 38 -66q-44 -14 -72 -51t-28 -84v-27h280v27q0 62 -46 104l19 35l92 -43h1q1 -1 3 -1h2v0q6 0 10 4
t4 10q0 2 -1 4z" />
    <glyph glyph-name="gicon-legalize-name" unicode="&#xe622;" 
d="M470 307q-14 6 -22 13t-12 15t-4.5 16t1.5 16q2 13 8 18q5 5 16 13q4 4 7.5 10t5.5 13q3 8 5 16q6 2 10 6t7.5 10t4.5 17q1 8 -0.5 14t-3.5 9q-2 4 -5 7q0 21 -3 41q-2 19 -9 38q-6 20 -19 36q-6 7 -16 14.5t-22.5 13t-27.5 8.5q-14 4 -29 4v0q-12 0 -24.5 -2t-25.5 -7
q-12 -5 -24 -14t-22 -23q-11 -15 -16.5 -34t-7.5 -35.5t-2 -32.5v-6q-4 -6 -6 -11t-3 -12.5t2 -15.5q3 -9 6.5 -13.5t6.5 -7.5q3 -2 7 -4q3 -9 5 -16q3 -7 6 -13t7 -10q9 -8 16 -14q7 -7 8 -19q1 -8 1 -15q0 -6 -3 -12.5t-8.5 -12.5t-16.5 -13q-14 -8 -31 -13
q-18 -4 -35 -10q-16 -6 -29 -16t-15 -29q-5 -34 -2.5 -54.5t7.5 -25.5q3 -2 15 -5q12 -2 29 -5q17 -2 38 -5q20 -2 41 -4q23 -2 41 -3q20 -1 35 -1t35 1q18 1 42 3q22 2 44 5q11 1 23 3v143l-8 2q-15 4 -28 9zM517 426q72 13 92 42h-89v15h96q7 20 6 70h17q0 -50 -6 -70h74
v-15h-79l-4 -6q41 -18 81 -36l-8 -15q-42 21 -82 39q-27 -26 -88 -40q-5 9 -10 16zM524 575h89q-5 9 -13 20l14 8q6 -8 15 -22l-10 -6h83v-35h-16v21h-146v-21h-16v35zM548 523q22 -10 42 -21l-9 -14q-19 12 -41 22zM565 552q23 -10 41 -21l-9 -14q-18 12 -39 24zM787 603
l15 -6q-7 -8 -13 -16h99v-14q-36 -41 -95 -68h94v-88h-15v13h-102v-13h-16v73q-15 -6 -31 -11q-4 7 -9 14q43 12 78 29q-12 12 -26 25l12 10q15 -13 30 -27q34 19 59 43h-90q-22 -23 -50 -44q-5 8 -10 13q38 25 70 67zM872 485h-102v-48h102v48zM885 338q0 -9 -10 -9h-334
q-10 0 -10 9v5q0 9 10 9h334q10 0 10 -9v-5zM618 257q0 -10 -10 -10h-64q-10 0 -10 10v4q0 10 10 10h64q10 0 10 -10v-4z" />
    <glyph glyph-name="gicon-form-phone" unicode="&#xe623;" 
d="M806 -119h-497q-25 0 -42.5 21t-17.5 51v854q0 30 17.5 51t42.5 21h497q25 0 42 -21t17 -51v-854q0 -30 -17 -51t-42 -21zM309 876q-24 0 -40.5 -20t-16.5 -49v-854q0 -29 16.5 -49.5t40.5 -20.5h497q23 0 40 20.5t17 49.5v854q0 29 -17 49t-40 20h-497zM771 112h-423
v664h423v-664zM351 114h417v659h-417v-659zM558 -56q-20 0 -34 14t-14 33.5t14 33.5t34 14t34 -14t14 -33.5t-14 -33.5t-34 -14zM558 37q-19 0 -32 -13.5t-13 -32t13 -32t32 -13.5t32 13.5t13 32t-13 32t-32 13.5z" />
    <glyph glyph-name="gicon-form-password" unicode="&#xe624;" 
d="M949 -105h-870q-27 0 -46 19t-19 46v458q0 27 19 46t46 19h870q27 0 46 -19t19 -46v-458q0 -27 -19 -46t-46 -19zM79 480q-26 0 -44 -18t-18 -44v-458q0 -26 18 -44t44 -18h870q26 0 44 18t18 44v458q0 26 -18 44t-44 18h-870zM538 76h-80v213h80v-213zM461 79h75v207
h-75v-207zM172 639q33 97 129.5 159.5t219 62.5t219 -62.5t129.5 -159.5h3q-6 19 -15 36q-28 56 -79 98q-106 91 -257.5 91t-258.5 -91q-50 -42 -78 -98q-9 -17 -15 -36h3zM168 641h3v-156h-3v156zM870 638h2v-156h-2v156z" />
    <glyph glyph-name="gicon-form-openeyes" unicode="&#xe625;" 
d="M1005 337q-270 292 -545 273q-171 -12 -327 -142q-78 -65 -122 -127l-2 1q44 63 122 128q68 57 142 92q92 44 187 51q276 19 547 -274zM493 66q-17 0 -34 1q-94 6 -186 50q-74 35 -142 92q-79 66 -122 128l2 2q44 -63 121 -127q156 -130 328 -142q274 -19 545 272l2 -2
q-255 -274 -514 -274zM504 136q-82 0 -140 58t-58 140t58 140t140 58t140 -58t58 -140t-58 -140t-140 -58zM504 529q-81 0 -138 -57t-57 -138t57 -138t138 -57t138 57t57 138t-57 138t-138 57z" />
    <glyph glyph-name="gicon-form-closeeyes" unicode="&#xe626;" 
d="M496 246q-16 0 -32 1q-90 6 -177 48q-70 33 -136 88q-74 62 -116 122l3 1q41 -59 115 -121q148 -124 312 -135q261 -18 518 259l2 -2q-242 -261 -489 -261zM233 328l3 -1l-66 -176l-2 1zM524 250h3v-134h-3v134zM766 323l112 -147l-2 -2l-113 147z" />
    <glyph glyph-name="gicon-grade-v1" unicode="&#xe627;" 
d="M166 841h681v-3h-681v3zM165 841l3 -2l-156 -324l-3 1zM11 517l504 -630l-2 -2l-504 630zM1016 506l2 -1l-504 -621l-2 2zM849 842l168 -336l-3 -2l-168 336zM373 232l-145 428h41l126 -381l125 381h41l-145 -428h-43z" />
    <glyph glyph-name="gicon-logo-blue" unicode="&#xe628;" 
d="M923 427q-4 -72 -40 -153.5t-86.5 -149t-104.5 -123.5t-100 -88t-68 -32q-16 0 -58 31.5t-96 87.5t-106 123t-91 148.5t-47 152.5q-11 95 15.5 181.5t80 148.5t133 98t169.5 33q126 -4 220 -64.5t141 -163t38 -230.5zM762 578q0 -74 -71 -127q-57 -41 -135 -46l-11 -293
q-1 -9 -7.5 -15.5t-15.5 -5.5t-15.5 7.5t-6.5 15.5l12 290q-85 4 -145 47q-71 53 -71 126q0 10 6.5 16.5t15.5 6.5t16 -6.5t7 -16.5q0 -54 55 -92.5t133 -36.5h2l2 0.5t3 0.5q1 -1 3 -1q74 3 126 40.5t52 88.5q0 10 6.5 16.5t15.5 6.5q10 0 16.5 -6.5t6.5 -15.5zM538 531
q8 0 13.5 -6t5.5 -14t-6 -13.5t-13 -5.5q-9 0 -14.5 5.5t-5.5 13.5q0 9 5.5 14.5t14.5 5.5zM639 362l-9 -157q-1 -10 -7.5 -16t-15.5 -5.5t-15.5 7.5t-6.5 16l9 157q0 9 7 15.5t16 5.5t15.5 -7.5t6.5 -15.5zM578.5 527.5q-0.5 -15.5 -11.5 -26t-27 -10.5t-26.5 11.5t-10 27
t11.5 26.5t27 10.5t26.5 -12t10 -27z" />
    <glyph glyph-name="gicon-people" unicode="&#xe629;" 
d="M559 -93q-174 0 -343 3q-5 0 -13.5 1t-29 10.5t-32.5 26.5q-38 51 -8 156q23 79 76 110q32 18 99 26q26 3 39 5.5t29 10.5t25 22l8 63q-41 33 -73 88q-29 50 -39 105q-13 69 6 142q22 84 96 140t160 56q81 0 143 -51q69 -58 102 -171q37 -129 -19 -220q-30 -48 -88 -84
q-6 -4 -7 -5l2 -74q8 -2 27 -7q35 -8 54 -13t51 -14.5t50 -17.5t38.5 -19.5t30.5 -25t13 -28.5q1 -6 3 -19q15 -80 9 -121q-4 -33 -20 -53q-19 -24 -53 -31q-62 -11 -336 -11zM559 869q-85 0 -158.5 -56t-94.5 -138q-34 -131 32 -245q34 -56 73 -87l1 -1l-8 -65v0
q-9 -15 -26 -23.5t-30.5 -11t-39.5 -5.5t-40 -5.5t-38 -11t-38.5 -21.5t-30 -37.5t-25.5 -58.5q-30 -103 7 -153q12 -16 31.5 -25.5t28 -10.5t14.5 -1q171 -4 342 -4q274 0 335 12q62 12 71 82q6 40 -9 120q-2 13 -3 18q-2 15 -12.5 28.5t-30.5 24.5t-38 19t-49.5 17t-50 14
t-54.5 13q-14 4 -28 7h-1l-2 78v0q1 1 8 6q163 102 106 301q-30 105 -93 162.5t-149 57.5zM552 -28l-37 35l28 108q-13 5 -20.5 16t-7.5 23v1q0 14 9 25.5t23 14.5q6 2 12 2h1q18 0 31 -12.5t13 -30.5q0 -24 -22 -36l12 -119zM518 8l35 -33l38 25l-12 119l1 1q21 11 21 34
q0 17 -12 28.5t-29 11.5h-1q-5 0 -11 -2q-13 -3 -21.5 -13.5t-8.5 -23.5v0v0q0 -13 7.5 -23t19.5 -15h1z" />
    <glyph glyph-name="gicon-filter" unicode="&#xe62a;" horiz-adv-x="1025" 
d="M615 -121l-202 158v1l-6 373q-358 340 -379 365q-13 15 -16.5 43t4.5 45q7 15 22 15h19q108 1 201 1q690 0 731 -11q25 -7 34 -28q4 -19 1 -34t-9 -24q-10 -17 -391 -371zM416 39l196 -154l9 529h1q380 354 391 370q6 9 9 23.5t-2 32.5q-8 20 -32 26q-40 11 -730 11h-201
q-17 -1 -19 -1q-13 0 -19 -13q-8 -16 -4.5 -43.5t15.5 -41.5q21 -26 379 -366h1v-1z" />
    <glyph glyph-name="gicon-filter1" unicode="&#xe62b;" 
d="M954 756h-880q-21 0 -36 -15t-15 -36v-578q0 -21 15 -36t36 -15h408v2h-408q-20 0 -34 14.5t-14 34.5v578q0 20 14 34t34 14h880q20 0 34 -14t14 -34v-578q0 -20 -14 -34.5t-34 -14.5h-238v-2h238q21 0 36 15t15 36v578q0 21 -15 36t-36 15zM159 534h470v-2h-470v2z
M144 294h750v-2h-750v2zM715 79l2 -3l-173 -144l-2 3z" />
    <glyph glyph-name="gicon-lecturer" unicode="&#xe62c;" 
d="M250 861h526v-3h-526v3zM401 860l21 -139l-3 -1l-21 140h3zM644 860h3l-20 -144h-3zM516.5 318q-88.5 0 -151.5 63t-63 151.5t63 151t151.5 62.5t151.5 -62.5t63 -151t-63 -151.5t-151.5 -63zM516.5 744q-87.5 0 -149.5 -62t-62 -149.5t62 -149.5t149.5 -62t149.5 62
t62 149.5t-62 149.5t-149.5 62zM779 -100h-730q19 120 87 216t170.5 149.5t220.5 53.5q137 0 252 -72v3q-38 23 -80 40q-82 32 -171.5 32t-172.5 -32q-80 -32 -146 -90q-65 -58 -107 -136t-56 -165v-2h733v3zM728 46h271v-3h-271v3zM867 171h3v-271h-3v271zM389 34
q0 -7 1 -15q-17 -11 -31 -22l-8 11q6 5 6 16v60h-20v13h32v-76q9 5 20 13zM357 153q14 -14 26 -29l-11 -9q-12 14 -25 29zM464 155h13v-35h25v-12h-25v-45h30v-13h-30v-61h-13v61h-40q-2 -36 -32 -63q-4 5 -10 11q26 22 29 52h-27v13h28q1 12 1 45h-23v12h23v34h13v-34h38
v35zM426 63h38v45h-38v-45zM522 144h13v-113h-13v113zM555 156h12v-84q0 -56 -29 -86q-6 6 -11 9q27 27 28 77v84zM598 12h-13v99h39v26h-45v12h105v-12h-47v-26h39v-77q0 -19 -18 -19h-16q-1 7 -3 14q10 -1 15 -1q9 0 9 8v64h-26v-113h-13v113h-26v-88z" />
    <glyph glyph-name="gicon-music" unicode="&#xe62e;" 
d="M633 157.5q16 -68.5 -40.5 -132.5t-152.5 -86t-175 10.5t-94.5 101t41 132.5t152 86.5t174.5 -10.5t95 -101.5zM636 151q0 -19 -9.5 -32t-23.5 -13t-23.5 13t-9.5 32v502q0 19 9.5 32.5t23.5 13.5t23.5 -13.5t9.5 -32.5v-502zM615 635q-9 -6 -20.5 -1t-18 17t-5 24
t10.5 17l242 137q9 5 20.5 0t18 -17t5 -24t-10.5 -17zM892 -13q58 68 93 151q12 29 22 60l-33 13q-35 -118 -117 -210zM144 709q-59 -68 -94 -150q-13 -29 -22 -59l32 -14q36 117 119 209z" />
    <glyph glyph-name="gicon-sms-template" unicode="&#xe62f;" 
d="M904 -46h-776q-25 0 -43 18t-18 44v740q0 25 18 43t43 18h776q26 0 44 -18t18 -43v-740q0 -26 -18 -44t-44 -18zM128 814q-24 0 -41 -17t-17 -41v-740q0 -25 17 -42t41 -17h776q25 0 42 17t17 42v740q0 24 -17 41t-42 17h-776zM882 511h-727v203h727v-203zM158 514h721
v197h-721v-197zM531 58h-367v343h367v-343zM167 61h361v337h-361v-337zM886 294h-259v107h259v-107zM630 297h253v101h-253v-101zM892 104h-259v107h259v-107zM636 107h253v101h-253v-101z" />
    <glyph glyph-name="gicon-sms-add" unicode="&#xe630;" 
d="M10 387h1004v-3h-1004v3zM526 882h2v-1004h-2v1004z" />
    <glyph glyph-name="gicon-public-up" unicode="&#xe632;" horiz-adv-x="1028" 
d="M535 606l1 -2l-532 -448l-2 2zM537 606l491 -456l-2 -2l-491 456zM533 607l1 -2l-532 -448l-2 2zM534 607l492 -456l-2 -2l-491 456z" />
    <glyph glyph-name="gicon-public-down" unicode="&#xe633;" 
d="M495 149l-2 2l527 444l2 -3zM493 149l-487 451l2 2l487 -451zM497 148l-2 2l527 443l2 -2zM495 148l-487 451l2 2l487 -451z" />
    <glyph glyph-name="gicon-public-next" unicode="&#xe634;" 
d="M740 358l-2 -2l-441 524l2 2zM740 356l-449 -484l-2 2l449 484zM741 360l-2 -2l-441 524l2 2zM741 358l-449 -484l-2 2l449 484z" />
    <glyph glyph-name="gicon-public-return" unicode="&#xe635;" 
d="M731 882l2 -2l-441 -524l-2 2zM292 358l449 -484l-2 -2l-449 484zM730 884l2 -2l-441 -524l-2 2zM291 360l449 -484l-2 -2l-449 484z" />
    <glyph glyph-name="gicon-public-share" unicode="&#xe636;" 
d="M101 370zM10 369.5q0 -37.5 26.5 -64t64 -26.5t64.5 26.5t27 64t-27 64.5t-64.5 27t-64 -27t-26.5 -64.5zM607 369.5q0 -37.5 -27 -64t-64.5 -26.5t-64 26.5t-26.5 64t26.5 64.5t64 27t64.5 -27t27 -64.5zM930 370zM839 369.5q0 -37.5 27 -64t64.5 -26.5t64 26.5t26.5 64
t-26.5 64.5t-64 27t-64.5 -27t-27 -64.5z" />
    <glyph glyph-name="gicon-public-error" unicode="&#xe638;" 
d="M6 892l1018 -1018l-2 -2l-1018 1018zM1022 891l2 -2l-1009 -1017l-2 2zM6 893l1017 -1018l-2 -2l-1017 1018zM1021 892l2 -2l-1009 -1017l-2 2z" />
    <glyph glyph-name="gicon-public-search" unicode="&#xe639;" horiz-adv-x="1025" 
d="M408 84q-82 0 -158 32q-72 31 -128 87t-87 128q-31 75 -31 157t31 158q31 72 87 128t128 87q76 31 158 31t157 -31q72 -31 128 -87t87 -128q32 -76 32 -158t-32 -157q-31 -72 -87 -128t-128 -87q-75 -32 -157 -32zM408 889q-109 0 -201.5 -53.5t-146 -146t-53.5 -201.5
t53.5 -201t146 -146t201.5 -54t201 54t146 146t54 201t-54 201.5t-146 146t-201 53.5zM694 204l330 -330l-2 -2l-330 330z" />
    <glyph glyph-name="gicon-public-code" unicode="&#xe63a;" 
d="M9 588v151q0 20 18 34.5t43 14.5h884q25 0 43 -14.5t18 -34.5v-151h3v151q0 21 -19 36.5t-45 15.5h-884q-26 0 -45 -15.5t-19 -36.5v-151h3zM1015 284v-168q0 -20 -18 -34.5t-43 -14.5h-884q-25 0 -43 14.5t-18 34.5v168h-3v-168q0 -21 19 -36.5t45 -15.5h884
q26 0 45 15.5t19 36.5v168h-3zM157 513q-20 -34 -89 -65v21q77 38 95 87h16v-304h-22v261zM401 252v13q32 67 100 113q78 56 72 94q-1 63 -72 65q-56 -2 -73 -64l-21 13q26 72 101 70q85 -3 89 -80q8 -49 -78 -110q-65 -46 -91 -98h171v-16h-198zM967 335q-4 -83 -99 -88
q-85 2 -102 79l23 6q11 -67 76 -67q77 2 78 73q-1 60 -80 60h-27v18h16q77 0 79 62q0 59 -63 59q-64 1 -73 -64l-22 8q16 75 93 75q86 -1 89 -78q-3 -53 -54 -68v-1q63 -13 66 -74z" />
    <glyph glyph-name="gicon-public-collect" unicode="&#xe63b;" 
d="M772 -28q-8 0 -16 4l-233 123q-11 5 -22 0l-233 -123q-8 -4 -16 -4q-15 0 -25 12q-10 11 -7 27l44 260q1 2 1 4q0 9 -7 16l-189 185q-15 14 -9 33.5t27 22.5l261 38q12 2 17 12l117 237q9 19 30 19t30 -19l117 -237q5 -10 17 -12l261 -38q21 -3 27 -22.5t-9 -33.5
l-189 -185q-7 -7 -7 -16q0 -2 1 -4l44 -260q3 -16 -7 -27q-10 -12 -25 -12zM512 112q8 0 15 -4l234 -123q5 -3 11 -3q10 0 17 8t5 19l-44 260q-1 3 -1 6q0 14 10 24l189 184q11 10 6.5 23.5t-18.5 15.5l-262 38q-17 2 -25 18l-117 237q-6 13 -20 13t-20 -13l-117 -237
q-8 -16 -25 -18l-262 -38q-14 -2 -18.5 -15.5t6.5 -23.5l189 -184q10 -10 10 -24q0 -3 -1 -6l-44 -260q-2 -11 5 -19t17 -8q6 0 11 3l234 123q7 4 15 4z" />
    <glyph glyph-name="gicon-public-collect-ed" unicode="&#xe63c;" horiz-adv-x="1036" 
d="M544 850l128 -263q9 -16 27 -19l291 -42q21 -3 28 -24.5t-9 -35.5l-210 -205q-13 -13 -10 -31l49 -289q4 -22 -13.5 -35t-37.5 -2l-259 135q-8 4 -17 4t-17 -4l-259 -135q-19 -11 -37 2t-14 35l50 289q3 18 -11 31l-208 205q-16 16 -9 36.5t28 23.5l289 42q18 3 27 19
l128 263q11 19 33.5 19t32.5 -19zM544 850z" />
    <glyph glyph-name="gicon-public-forwarding" unicode="&#xe63d;" 
d="M318 155l-12 33q-4 10 -9 26.5t-12 59t-7.5 83t12.5 91.5t41 91q94 135 345 137q5 31 5 197v19l297 -338l-300 -298l-3 207q-90 -6 -169 -38q-176 -70 -186 -235zM696 853q0 -46 -1 -83q-1 -45 -3 -70q-1 -24 -3 -31.5t-9 -7.5q-247 0 -338 -130q-25 -36 -37.5 -81
t-11.5 -88t5 -75t12 -61q27 147 191 213q91 37 181 39h7l3 -188l267 265zM926 313v-271q0 -60 -42.5 -102.5t-102.5 -42.5h-582q-60 0 -102.5 42.5t-42.5 102.5v572q0 60 42.5 102.5t102.5 42.5h316v14h-316q-66 0 -112.5 -46.5t-46.5 -112.5v-572q0 -66 46.5 -112.5
t112.5 -46.5h582q66 0 112.5 46.5t46.5 112.5v271h-14zM391 161h360v-15h-360v15zM381 34h456v-14h-456v14z" />
    <glyph glyph-name="gicon-public-phiz" unicode="&#xe63f;" 
d="M406 513.5q0 -31.5 -22 -53.5t-53.5 -22t-54 22t-22.5 53.5t22.5 54t54 22.5t53.5 -22.5t22 -54zM790 514.5q0 -31.5 -22 -53.5t-53.5 -22t-53.5 22t-22 53.5t22 54t53.5 22.5t53.5 -22.5t22 -54zM245 293q6 -107 84.5 -181t186.5 -74t186.5 74t85.5 181h-543z
M513.5 -125q-103.5 0 -197.5 40q-91 39 -161.5 109t-108.5 162q-40 94 -40 197.5t40 197.5q38 91 108.5 161.5t161.5 109.5q94 39 197.5 39t198.5 -39q91 -39 161 -109.5t109 -161.5q40 -94 40 -197.5t-40 -197.5q-39 -92 -109 -162t-161 -109q-95 -40 -198.5 -40z
M513.5 889q-102.5 0 -196 -40.5t-161 -108t-108 -161t-40.5 -196t40.5 -196t108 -161.5t161 -108t196 -40t196.5 40t161.5 108t107.5 161.5t40 196t-40 196t-107.5 161t-161.5 108t-196.5 40.5z" />
    <glyph glyph-name="gicon-public-reward" unicode="&#xe640;" 
d="M933 501q-29 32 -82 33q-36 0 -54 -4l-18 -4q-37 -7 -59 -12q-13 60 -70 100q-59 41 -137 41h-1q-79 0 -139 -42q-57 -40 -69 -101q-50 10 -97 21q-7 2 -28 3h-2h-4q-53 0 -82 -32q-26 -29 -26 -77q0 -34 18 -62l141 -194q40 -55 93 -57v0l393 -1q48 3 88 56l142 193
q19 28 19 62q0 48 -26 77v0zM704 163h-383h-1q-30 0 -53 33q-2 3 -141 197h-1q-9 15 -9 33v1q0 29 13 43q14 15 44 15h2h1h1v0q14 0 19 -1q54 -13 111 -23q23 -5 46 -8q90 -15 150 -15h2q66 0 167 17q22 3 46 8q27 5 71 14q9 2 18 3q10 2 45 3q29 0 43 -15.5t13 -43.5
q0 -18 -10 -33v-1q-140 -192 -143 -196q-23 -29 -49 -31h-2v0zM396 567q22 18 51 28q31 10 65 10h1q34 0 65 -11q29 -10 51 -28q33 -26 41 -60q-101 -17 -165 -17h-2q-59 0 -149 15q7 36 42 63v0z" />
    <glyph glyph-name="gicon-public-pyq" unicode="&#xe644;" 
d="M349 252l-265 265q-20 -64 -20 -132q0 -74 24 -144h271q-6 6 -10 11zM937 530h-271q5 -5 10 -11l265 -265q20 64 20 131q0 75 -24 145zM908 596q-68 128 -198 192l-191 -192h389zM117 174q68 -127 196 -190l191 190h-387zM723 370v-381q127 68 191 197l-191 191v-7z
M512 834q-74 0 -144 -24v-271l275 275q-64 20 -131 20zM381 -43q64 -20 131 -20q75 0 144 24v270q-5 -5 -10 -9l-265 -265v0zM301 781q-127 -68 -190 -197l190 -190v387z" />
    <glyph glyph-name="gicon-public-wx" unicode="&#xe645;" horiz-adv-x="1026" 
d="M697 553q15 0 35 -2q-24 112 -128.5 186t-239.5 74q-99 0 -182.5 -41.5t-132.5 -114.5t-49 -159q0 -147 146 -251l-37 -111l128 65q6 -2 25 -6t27 -5.5t23 -3.5t27 -3t25 -1q16 0 34 1q-11 40 -11 78q0 122 90 208t220 86zM498.5 661q23.5 0 40 -17t16.5 -40.5
t-16.5 -40.5t-40 -17t-40 17t-16.5 40.5t16.5 40.5t40 17zM243.5 545q-23.5 0 -40 17t-16.5 40.5t16.5 40.5t40 17t40 -17t16.5 -40.5t-16.5 -40.5t-40 -17zM1026 262q0 73 -43 135.5t-114 98.5t-152 36q-129 0 -219.5 -79t-90.5 -190.5t90.5 -190.5t219.5 -79q36 0 109 19
l100 -56l-27 93q127 97 127 213zM622 304q-17 0 -28.5 12t-11.5 29t11.5 29t28.5 12t28.5 -12t11.5 -29t-11.5 -29t-28.5 -12zM822 302q-17 0 -28.5 12t-11.5 28.5t12 28.5t28.5 12t28 -12t11.5 -28.5t-11.5 -28.5t-28.5 -12zM822 302z" />
    <glyph glyph-name="gicon-public-wb" unicode="&#xe646;" 
d="M758 395q-17 3 -22.5 10.5t-1.5 12.5l4 6q1 3 3.5 7.5t7 18t5 26.5t-5 29.5t-18.5 29.5q-16 16 -42.5 21.5t-52.5 1t-50 -11t-38 -12.5l-15 -6q-12 -4 -19.5 -5.5t-12 0.5t-6.5 3.5t-1.5 8t1 11t3 14.5t3.5 17q0 17 -3 32t-12.5 31.5t-26 25t-47 8t-71.5 -14.5
q-40 -14 -82 -41.5t-73.5 -57.5t-57 -57.5t-39.5 -45.5l-14 -18q-23 -32 -39.5 -64.5t-23 -56t-9 -43t-2.5 -29t1 -9.5q6 -56 33.5 -100.5t65.5 -72t89.5 -46.5t99 -28t100.5 -13q87 -7 179.5 13.5t173 71t113.5 120.5q19 41 19.5 77t-12 59t-33 40.5t-38.5 25.5t-33 11z
M401 31q-125 -6 -214 49t-89 139t88 144t215 66q129 6 216.5 -42.5t87.5 -130.5q0 -85 -89.5 -152t-214.5 -73zM368 355q-121 -14 -145 -119q-7 -32 -4 -59v-5.5t2 -13.5t6.5 -19t14 -19.5t22.5 -17.5q47 -26 97 -27t89 18.5t66 53.5q15 20 20.5 49t-2.5 59t-26.5 54.5
t-55 38t-84.5 7.5zM325.5 133.5q-23.5 -2.5 -40.5 9.5t-17 31q0 21 16 38t38 19q27 3 43.5 -10t16.5 -33t-16.5 -36t-40 -18.5zM425 218q-8 -6 -17 -5t-13 8t-2 16.5t9 15.5q10 7 18.5 6t13 -8.5t2 -17t-10.5 -15.5zM841 463q10 0 17.5 7t9.5 16v3q14 131 -88 152
q-33 7 -64 2q-11 0 -19 -8.5t-8 -19.5q0 -12 8 -20t19 -8q37 7 58 0.5t29.5 -22.5t10.5 -32.5t1 -29.5l-2 -12q0 -12 8 -20t20 -8zM820 786q-60 15 -138 -1l-1.5 -0.5l-1.5 -0.5l-1 -1q-13 -4 -21.5 -14.5t-8.5 -24.5q0 -17 12 -28.5t28 -11.5q22 3 37 8q6 1 20.5 2.5
t38.5 -4.5t48 -15.5t49.5 -30.5t42.5 -50q31 -70 12 -134q-7 -19 -7 -39q0 -16 11 -26t28 -10t26.5 6.5t12.5 27.5v0q16 53 17 100t-12 82.5t-33.5 64t-48 48.5t-54.5 33t-56 19z" />
    <glyph glyph-name="gicon-public-qq" unicode="&#xe647;" 
d="M971 227l-2 18l-3 17l-3 9l-2 9l-3 9l-4 10l-3 10l-4 9l-8 16l-6 14l-7 13l-5 11l-7 11l-5 9l-10 15l-12 19l-3 5l-1 2v1l2 7l3 6l2 11l2 6v6v5v5v6l-1 4l-2 10l-2 9l-3 8l-3 8l-4 7l-3 7l-3 6l-6 9l-2 3v2l-3 18l-1 11l-2 14l-3 15l-4 17l-3 9l-2 8l-3 9l-3 10l-3 9
l-4 10l-8 19l-5 9l-6 10l-5 9l-6 10l-7 10l-7 8l-8 10l-8 8l-8 8l-9 9l-5 3l-5 4l-11 7l-12 8l-12 7l-13 7l-13 6l-13 6l-14 4l-15 4l-13 4l-15 3l-13 4l-15 1l-14 2l-15 2h-43l-14 -1l-14 -2l-14 -2l-13 -2l-14 -3l-13 -3l-13 -4l-12 -4l-12 -4l-12 -6l-12 -5l-10 -6
l-10 -6l-10 -7l-10 -8l-8 -7l-12 -12l-10 -10l-10 -11l-9 -11l-9 -11l-7 -10l-7 -11l-4 -5l-3 -6l-7 -10l-5 -10l-5 -10l-4 -10l-4 -9l-3 -9l-3 -9l-4 -8l-4 -16l-3 -15l-1 -12l-2 -11v-21l-3 -3l-3 -4l-2 -4l-2 -4l-2 -9l-3 -9v-7l-1 -6v-6l-6 -8l-4 -9l-3 -8l-2 -7l-2 -7
l-2 -6v-17l1 -4l2 -7l1 -6l-3 -3l-9 -6l-12 -11l-7 -7l-7 -6l-5 -5l-4 -5l-9 -9l-8 -10l-7 -8l-8 -11l-7 -11l-7 -12l-7 -11l-5 -11l-5 -11l-4 -10l-4 -11l-3 -11l-3 -11l-3 -10l-2 -10l-1 -9l-2 -10l-1 -18v-24l1 -7l2 -13l1 -6l2 -5l2 -6l1 -3l3 -7l2 -2l2 -3h1h2h7l7 2
l7 3l6 4l6 4l5 5l6 5l5 6l5 6l4 6l4 4l2 6l5 8l2 4l1 2v3l1 2h1l2 1h1v-1h1h1l3 -12l2 -10l4 -10l4 -9l4 -9l5 -8l4 -9l4 -7l5 -7l3 -6l10 -12l9 -11l8 -8l8 -7l7 -6l11 -10l4 -2l2 -2v-1l-1 -1h-1h-2l-8 -1l-7 -1l-6 -1l-7 -1l-5 -2l-6 -2l-5 -2l-4 -3l-5 -1l-3 -3l-3 -2
l-4 -3l-4 -5l-2 -3l-2 -2l-3 -6l-2 -5l-1 -5l-1 -4v-9l-1 -4v-4l-1 -4v-3l1 -4l1 -4l2 -7l2 -3l2 -3l2 -3l3 -3l3 -3l2 -3l7 -5l8 -4l8 -5l9 -3l9 -4l11 -2l10 -4l11 -2l12 -2l11 -2l12 -1l24 -3h24h43h11l9 1l9 1l8 1l13 2l9 3l9 2l17 7l8 3l7 3l12 7l10 6l8 5l6 5l9 -1
l7 -1l14 -1h12l4 -1l4 -1l7 -3l8 -2l14 -5l15 -5l14 -4l14 -3l15 -4l15 -2l15 -2l14 -2l14 -1l15 -1h40l13 1l13 1l12 2l11 3l11 2l11 3l5 1l5 2l9 3l8 4l8 4l8 4l6 5l3 3l3 4l4 4l4 6l1 3l1 3l2 3l1 3v4l1 3l-1 5l-1 4l-2 5l-1 4l-3 5l-3 5l-3 3l-4 4l-9 7l-10 8l-10 5
l-10 6l-23 12l-6 3l-2 2l-1 1l12 11l5 6l4 5l8 12l7 11l6 11l6 10l8 20l7 16l4 12l2 4l2 3l2 2h1h1l6 -12l5 -12l4 -7l4 -5l4 -7l5 -7l4 -5l3 -2l2 -3l2 -1l3 -2l4 -2l3 -1h4l2 1l4 1l3 2l3 2l3 3l3 4l2 3l3 5l2 3l2 6l2 4l3 11l2 12l2 14l1 8v22z" />
    <glyph glyph-name="qq" unicode="&#xe648;" 
d="M871 319q18 -51 24 -84.5t3 -39.5l-3 -8q-6 -3 -16.5 -6t-25.5 0q-8 2 -21 9.5t-22 15.5l-10 7q-6 -18 -15 -35l-25 -39q29 -9 46 -27q9 -9 12.5 -18t3.5 -14v-6q0 -30 -40 -48q-26 -12 -57 -18.5t-48 -6.5h-18q-6 -3 -69 10q-11 1 -21 5q-9 3 -20 7t-15 6l-22 3
q-9 1 -21 -3q-1 0 -21.5 -8.5t-34.5 -9.5l-69 -10q-64 -1 -123 25q-12 4 -20.5 11t-12 14t-5 12t-1.5 8l-2 3q-3 17 17 38q4 4 10.5 8.5t12.5 7.5q5 3 11 7q5 3 8 3l3 1q-13 20 -24 39l-15 35q-36 -29 -53 -32q-17 -1 -26.5 0.5t-12.5 4.5l-3 2q-17 13 24 131q6 14 11 29
q6 14 11 23q5 10 10 18q6 9 9.5 14t6.5 8l5 5l1 1v17q-1 11 0 42q2 30 8 61q6 30 25 70t48 74q36 42 92 63t94 23h37q3 -2 16 -0.5t40.5 -3t54.5 -11.5q27 -8 59 -26t54 -45q29 -34 48 -73t25 -72t8 -60t1 -42l-2 -17q29 -24 55 -98v0zM343 111q70 -66 169.5 -66t169 66
t69.5 160q0 39 -13 77q-96 -77 -226 -77t-225 77q-14 -38 -14 -77q0 -94 70 -160zM408 475q-70 -26 -67 -39q0 -10 17 -20q4 -3 9.5 -6t11 -4.5t10 -2.5t7.5 -1h3q-5 5 -9 14l-6 15q29 -27 72 -42q14 -6 28.5 -8.5t20.5 -2.5l7 2q26 -3 56 9q20 6 38 16.5t26 17.5l9 8
q-3 -9 -6 -15l-9 -14q26 3 41 14q7 4 11.5 8.5t4.5 8.5v3q0 1 -1.5 4t-17 13t-47.5 22q-20 6 -46.5 10.5t-41.5 4.5l-17 1q-58 -1 -104 -16zM437 665q-23 0 -38 -21.5t-15 -53.5q0 -15 3.5 -29.5t11.5 -24.5t17.5 -16t20.5 -6q22 0 37.5 22t15.5 54v0q0 15 -4 29.5t-11.5 24
t-17.5 15.5t-20 6zM455 560q-23 0 -23 30t23 30t23 -30t-23 -30zM626 643.5q-15 21.5 -38 21.5t-38 -21.5t-15 -53.5t15 -54t38 -22t38 22t15 54t-15 53.5zM552.5 570.5q-6.5 1.5 -5.5 7.5q3 15 11.5 27t20.5 11q23 -4 20 -46q-2 -6 -8 -6q-8 2 -6 8q2 28 -8 30
q-12 1 -16 -27q-2 -6 -8.5 -4.5z" />
    <glyph glyph-name="gicon-income" unicode="&#xe649;" 
d="M137 832v-868q1 -26 20.5 -29t37.5 11l318 176l318 -176q23 -13 41 -6.5t17 33.5v859h-752z" />
    <glyph glyph-name="gicon-income-t3" unicode="&#xe64a;" 
d="M967 344l-110 382q-3 9 -11.5 16.5t-17.5 8.5q-23 2 -34 -18v0l-198 -371q-35 21 -73 33q42 26 67 69.5t25 94.5q0 79 -56 135t-135 56t-135 -56t-56 -135q0 -51 24.5 -94t66.5 -69q-107 -32 -175 -122t-68 -204v-67h681v67q0 74 -29.5 139t-81.5 112l46 86l223 -104
q5 -3 10 -3q2 -1 5 -1v0q14 1 24 10.5t10 23.5v0q0 6 -2 11z" />
    <glyph glyph-name="gicon-income-t4" unicode="&#xe64b;" 
d="M956 93v-125q0 -27 -20 -46t-48 -19h-779q-29 0 -49 19t-20 46v690q0 27 20 46t49 19h779q28 0 48 -19t20 -46v-141h3v141q0 28 -21 47.5t-50 19.5h-779q-30 0 -50.5 -19.5t-20.5 -47.5v-690q0 -28 20.5 -47.5t50.5 -19.5h779q29 0 50 19.5t21 47.5v125h-3v0zM959 174
h-416v0q-49 1 -83.5 36t-34.5 83.5t34.5 83.5t83.5 35v0h1h415v-238zM545 177h411v233h-412q-48 0 -82 -34.5t-34 -82.5t34 -82t82 -34h1v0zM558 294zM521 294.5q0 -15.5 11 -26.5t26.5 -11t26.5 11t11 26.5t-11 26.5t-26.5 11t-26.5 -11t-11 -26.5zM865 741l-63 113
q-8 14 -24 19.5t-30 -1.5l-304 -137h3l301 136q15 7 30 1.5t23 -19.5l63 -113z" />
    <glyph glyph-name="gicon-income-t5" unicode="&#xe64c;" 
d="M898 39l-67 -39l4 -6h5q10 0 17.5 -6.5t7.5 -15.5t-7.5 -15.5t-17.5 -6.5t-17.5 6.5t-7.5 15.5q0 10 9 16l-3 5l-8 -5l-228 297v-0.5v-0.5h-2q-9 -2 -17.5 3t-11.5 14q-7 25 -17 58v-28v0q0 -13 -9 -23l12 -64q5 -24 22 -42l80 -86l-4 -2l40 -41l3 -4q6 -5 -1 -10
l-85 -66q-8 -6 -13 2q-1 1 -1 2q-12 21 4 39l18 21l-17 17l-4 -2l-80 86q-30 32 -38 74l-5 23l-14 -62q-3 -10 -3 -21v-7l11 -153h-5v-56q0 -7 -8 -7h-114q-4 0 -6.5 2.5t-1.5 5.5q0 2 1 3q7 22 32 27l28 5v16h-3l-11 153v11q0 18 4 36l26 113v137l-118 -12h-2v0
q-12 0 -18 8l-43 -13l-52 156l93 21l29 -122l14 -10l97 10v90q0 18 11 33.5t28 24.5l4 13q-18 8 -29 25t-11 37q0 28 19.5 48t47 20t47 -20t19.5 -48q0 -34 -26 -54l-1 -14q13 -1 22.5 -10t10.5 -22q1 11 14 11h15q25 0 42.5 -15.5t17.5 -37.5v-128q0 -19 -12 -34.5
t-31 -22.5q10 -40 19 -79q1 -3 1 -7q0 -8 -6 -14l43 -57l76 46q16 9 35 6t29 -18l130 -172q11 -14 7.5 -31t-19.5 -27v0z" />
    <glyph glyph-name="gicon-income-t6" unicode="&#xe64d;" horiz-adv-x="1026" 
d="M938 110q-74 34 -122 38l3 27q37 22 58.5 72t19.5 102q-2 37 -18 65v18q-1 3 -3.5 6.5t-10.5 13.5t-17.5 18t-26.5 15t-36 9l-78 -8q-3 -1 -8 -2.5t-17.5 -12.5t-20.5 -27l-19 -74v-12q-3 -16 -3 -32v-10q5 -77 54 -123v-10h-101q-7 1 -14 1q-4 1 -9 1q-12 0 -23 -1
q-1 0 -2.5 0.5l-1.5 0.5q-24 10 -41 16l134 286l391 129l-306 161l-241 -568q-8 2 -10 2v53q50 45 78.5 123.5t24.5 158.5v0q6 81 -14 125q0 1 -1 3t-5.5 8t-11 11.5t-19 11.5t-27.5 10q-10 7 -21 14q34 12 -23 24q-22 5 -56 10q-102 14 -157.5 -33.5t-70.5 -135.5
q-13 -49 -10 -104q4 -68 31 -127t70 -95v-60q-7 -1 -19.5 -4t-46.5 -12.5t-64 -21t-64.5 -30.5t-56.5 -40v-155q10 -9 23 -17q854 -4 914 2z" />
    <glyph glyph-name="gicon-income-faq" unicode="&#xe64e;" 
d="M736 515q-13 152 -199 162q-152 -7 -206 -169l17 -3q47 148 189 155q172 -10 182 -145q7 -101 -108 -162q-92 -52 -97 -152v-2v-2q-1 -5 -1 -9t1 -7v0v-69q0 -8 8 -8t8 8v69v0q-3 108 92 159q121 67 114 175zM524 43zM505 43q0 -8 5.5 -13.5t13.5 -5.5t13 5.5t5 13.5
t-5 13.5t-13 5.5t-13.5 -5.5t-5.5 -13.5z" />
    <glyph glyph-name="gicon-order-tel" unicode="&#xe64f;" 
d="M761 -126q-48 0 -107 26q-55 25 -117 71q-116 86 -232 228q-119 145 -190 285q-73 148 -59 223q22 110 111 156q55 28 122 28h16q24 0 77 -123q45 -107 51 -139q5 -33 -44 -66q-23 -15 -49 -26q-2 -34 91 -153q59 -74 117.5 -135t74.5 -62h3q13 0 24.5 8t31.5 27
q19 19 31 28q3 3 8 3q32 0 143 -75q44 -29 78 -56.5t37 -38.5q2 -9 -11.5 -44.5t-36.5 -68.5q-62 -87 -154 -95q-8 -1 -16 -1zM289 887q-18 0 -38 -2.5t-52 -13t-57.5 -28.5t-48.5 -53.5t-32 -83.5q-15 -74 58 -220q70 -140 189 -284q116 -142 231 -228q129 -95 222 -95h15
q91 8 151 94q16 22 28 47.5t16.5 41.5t2.5 20q-2 9 -34 35.5t-78 57.5q-110 73 -141 73q-4 0 -5 -1q-12 -10 -31 -28q-14 -13 -21 -19t-17.5 -12t-20.5 -6q-2 0 -4 1q-17 1 -77 63.5t-117 135.5q-96 123 -92 157l1 1l1 1q4 1 11 4.5t23 12.5t28.5 19t21.5 24t6 27
q-5 32 -50 139q-52 120 -74 120v0h-15z" />
    <glyph glyph-name="gicon-order-chat" unicode="&#xe650;" 
d="M486 819q-116 0 -214 -49.5t-155 -134.5t-57 -186q0 -92 49.5 -172t133.5 -133v-114q0 -11 6.5 -18t16.5 -7q6 0 12 3l116 78q37 -8 90 -8q116 0 214 49.5t155 134.5t57 186q1 101 -56 186.5t-154.5 135t-213.5 49.5zM486 140q-35 0 -79 8l-13 3q-11 2 -23 -5l-11 -8
l-55 -37v60q0 19 -16 27l-15 9q-72 43 -112.5 109.5t-40.5 141.5q0 83 48.5 154t132 112.5t182.5 41.5t183 -41.5t132.5 -112.5t48.5 -154q1 -83 -48 -154t-132.5 -112.5t-181.5 -41.5zM244 438.5q0 -21.5 15 -36.5t36.5 -15t36 15t14.5 36.5t-14.5 36.5t-36 15t-36.5 -15
t-15 -36.5zM438 438.5q0 -21.5 15 -36.5t36 -15t36 15t15 36.5t-15 36.5t-36 15t-36 -15t-15 -36.5zM625 438.5q0 -21.5 15 -36.5t36 -15t36 15t15 36.5t-15 36.5t-36 15t-36 -15t-15 -36.5zM918 359l-1 1.5t-2 1.5q-10 -38 -28 -73l1 -1.5l1 -1.5q12 -29 12 -60
q0 -42 -22.5 -79.5t-63.5 -61.5l-8 -5q-9 -4 -9 -15v-34l-31 21l-7 5q-6 3 -13 2l-7 -2q-24 -4 -44 -4q-52 0 -98 22q-44 -11 -90 -13q79 -67 189 -67q33 0 56 5l74 -49q3 -2 7 -2q6 0 10.5 4t4.5 11v73q53 32 84 82.5t31 108.5q0 72 -46 131z" />
    <glyph glyph-name="gicon-locate" unicode="&#xe651;" 
d="M534 369q-65 0 -110.5 46t-45.5 110.5t45.5 110.5t110.5 46t111 -46t46 -110.5t-46 -110.5t-111 -46zM534 680q-64 0 -109 -45.5t-45 -109t45 -108.5t109 -45t109 45t45 108.5t-45 109t-109 45.5zM532 -96l-268 440q-28 40 -44 92t-16 103q0 65 25 124q24 58 68.5 102
t101.5 68q59 25 124 25q67 0 129 -26q60 -26 104 -73q91 -93 86 -220q-3 -111 -55 -195l-1 -1zM523 856q-131 0 -223.5 -93t-92.5 -224q0 -50 16 -102t43 -92l266 -436l252 435v1q52 84 56 194q4 126 -85 219q-46 46 -106.5 72t-125.5 26z" />
    <glyph glyph-name="gicon-like" unicode="&#xe652;" 
d="M237 -93h-123q-30 0 -51 22.5t-21 53.5v510q0 32 21 54t51 22h123q37 0 58 -31q14 -20 14 -45v-510q0 -31 -21 -53.5t-51 -22.5zM114 566q-29 0 -49 -21.5t-20 -51.5v-510q0 -30 20 -51.5t49 -21.5h123q28 0 48.5 21.5t20.5 51.5v510q0 24 -13 43q-21 30 -56 30h-123z
M683 -79v0q-119 0 -260 38q-70 18 -118 37v1v514v1q41 31 82 76q81 90 80 157q-2 61 25 88q17 18 38 18h1q85 -9 107 -116q11 -58 3 -163q-3 -30 -2 -33q2 0 13 1q85 7 146 7q166 0 172 -48q20 -151 -1 -273q-18 -99 -60 -174q-21 -38 -48.5 -68.5t-38.5 -38.5t-17 -12v0h-1
q-55 -12 -121 -12zM307 -1q50 -20 117 -38q140 -37 259 -37v0q65 0 121 12q7 4 18 12.5t37.5 38t47.5 66.5q96 172 61 446q-6 45 -170 45q-61 0 -146 -7q-12 -1 -13 -1t-2 1q-2 2 1 35q2 24 3 39.5t1 46.5t-3 52t-10 48t-19 44t-32.5 30t-46.5 16h-1q-20 0 -36 -17
q-26 -26 -25 -86q1 -38 -24 -83q-20 -36 -56 -76q-39 -43 -82 -76v-511z" />
    <glyph glyph-name="gicon-interest" unicode="&#xe653;" horiz-adv-x="1025" 
d="M221 747q39 72 118 101q60 22 135 17q56 -4 100 -27q73 -37 103 -113q24 -62 17 -132q-13 -112 -59 -207q-32 -64 -78 -102q-46 -36 -101 -39q-87 -5 -153 68q-43 47 -71 123q-29 78 -38 155q-1 4 -1.5 9.5t-0.5 10.5v7q0 75 29 129zM1 -98q0 1 -0.5 2.5t-0.5 2.5v81
q1 37 11 63q15 38 54 59t103 38q63 18 145 27q112 12 180 10q16 -1 48 -4.5t45 -4.5q1 0 2 -0.5l1 -0.5q-2 -187 169 -273h-757v0zM1024 143h-122v-120h-82v120h-123v80h123v121h82v-121h122v-80z" />
    <glyph glyph-name="gicon-camera" unicode="&#xe654;" horiz-adv-x="1039" 
d="M875 -128h-727q-61 0 -104.5 43.5t-43.5 104.5v403q0 46 25 83t66 54q-3 3 -3 8q18 47 27 47h98q8 0 34 -44h60q3 5 7 13t16 28t22.5 35.5t22.5 28t20 12.5h322q13 0 31 -29t30 -59l12 -29h85q62 0 105.5 -43.5t43.5 -104.5v-403q0 -61 -43.5 -104.5t-105.5 -43.5z
M161 426q24 0 41 17t17 41t-17 41t-41 17t-41.5 -17t-17.5 -41t17.5 -41t41.5 -17zM556 528q-115 0 -196.5 -81.5t-81.5 -196t81.5 -195.5t196.5 -81t196 81t81 195.5t-81 196t-196 81.5zM555.5 61q-78.5 0 -134 55.5t-55.5 134t55.5 134t134 55.5t134.5 -55.5t56 -134
t-56 -134t-134.5 -55.5zM556 61z" />
    <glyph glyph-name="gicon-list" unicode="&#xe656;" 
d="M825 814h-56q-13 0 -23.5 -7t-10.5 -19q0 -11 11 -21.5t23 -10.5h56q25 0 41 -15.5t16 -41.5v-662q0 -26 -15.5 -42t-41.5 -16h-608q-27 0 -49 16.5t-22 41.5v662q0 25 15.5 41t40.5 16h71q22 0 22 32q0 26 -22 26h-71q-57 0 -85 -32t-28 -84v-655q0 -55 31.5 -88
t87.5 -33h611q58 0 88.5 31t30.5 90v655q0 51 -29.5 83.5t-83.5 32.5zM273 554.5q0 -11.5 8.5 -20.5t20.5 -9h425q11 0 19.5 9t8.5 21t-8.5 20.5t-19.5 8.5h-425q-12 0 -20.5 -9t-8.5 -20.5zM725 425h-423q-12 0 -20.5 -9t-8.5 -20.5t9 -20.5t20 -9h425q12 0 20.5 8.5
t8.5 20.5q-1 13 -10 21.5t-21 8.5zM725 252h-423q-12 0 -20.5 -8.5t-8.5 -20.5t8.5 -21t20.5 -9h425q12 0 20.5 9t8.5 21q-1 13 -10 21t-21 8zM416 742h198q17 0 29.5 15t12.5 35t-13 35t-31 15h-196q-17 0 -30 -15t-13 -35t12.5 -35t30.5 -15zM416 742z" />
    <glyph glyph-name="gicon-send" unicode="&#xe657;" horiz-adv-x="1233" 
d="M966.5 -83q-90.5 0 -154.5 64t-64 154t64 154t154.5 64t154.5 -64t64 -154t-64 -154t-154.5 -64zM966.5 398q-108.5 0 -186 -77t-77.5 -186t77.5 -186t186 -77t185.5 77t77 186t-77 186t-185.5 77zM613 69h-536q-13 0 -22.5 9.5t-9.5 22.5v718q0 13 9.5 22.5t22.5 9.5
h1033q14 0 23.5 -9.5t9.5 -22.5v-398q0 -9 6.5 -16t15.5 -7t15.5 7t6.5 16v398q0 32 -22.5 54.5t-54.5 22.5h-1033q-32 0 -54.5 -22.5t-22.5 -54.5v-718q0 -31 22.5 -53.5t54.5 -22.5h536q9 0 15.5 6.5t6.5 15.5t-6.5 15.5t-15.5 6.5zM1043 785l-449 -452h-3l-446 452
q-7 6 -16 6t-15.5 -6.5t-6.5 -15.5t6 -16l448 -453l2 -2q12 -9 29 -9t29 9l2 2l451 453q7 7 7 16t-6.5 15.5t-16 6.5t-15.5 -6zM1086 157h-186l45 45q6 6 6 15.5t-6.5 16t-15.5 6.5t-16 -7l-82 -82q-1 0 -1 -0.5v-0.5q-1 -1 -2 -3l-0.5 -0.5l-0.5 -0.5q-1 -2 -1 -3
l-0.5 -0.5l-0.5 -0.5q0 -2 -1 -3v-4v0v-5q1 0 1 -2q0 -1 0.5 -1t0.5 -1t1 -3h0.5h0.5q1 -2 3 -4l82 -83q7 -6 16 -6v0v0q9 0 15.5 6.5t6.5 15.5t-6 16l-45 45h186q9 0 15.5 6.5t6.5 15.5t-6.5 15.5t-15.5 6.5v0z" />
    <glyph glyph-name="gicon-travel" unicode="&#xe658;" horiz-adv-x="1033" 
d="M329 554q-10 0 -17 -7t-7 -17v-375q0 -10 7 -17t17 -7q9 0 16 7t7 17v375q0 10 -6.5 17t-16.5 7zM906 742h-154v25q0 12 -2 21v1q-8 45 -43.5 74.5t-81.5 29.5h-216q-46 0 -81.5 -30t-43.5 -74v-1q-2 -11 -2 -21v-25h-155q-52 0 -89.5 -37.5t-37.5 -90.5v-544
q0 -53 37 -90t90 -37q14 -32 43 -51.5t65 -19.5t65 19.5t43 51.5h348q14 -32 43 -51.5t65 -19.5t65 19.5t43 51.5q52 0 89.5 37t37.5 90v544q0 53 -37.5 90.5t-90.5 37.5zM405 846h224q31 0 53.5 -22.5t22.5 -54.5v-27h-376v27q0 32 22 54.5t54 22.5zM987 67
q0 -32 -22.5 -54.5t-53.5 -22.5h-42q0 -29 -20.5 -50t-49.5 -21t-50 21t-21 50h-423q0 -29 -20.5 -50t-49.5 -21t-50 21t-21 50h-41q-31 0 -53.5 22.5t-22.5 54.5v551q0 32 22.5 54.5t53.5 22.5h788q31 0 53.5 -22.5t22.5 -54.5v-551zM705 554q-10 0 -17 -7t-7 -17v-375
q0 -10 7 -17t17 -7q9 0 16 7t7 17v375q0 10 -6.5 17t-16.5 7z" />
    <glyph glyph-name="gicon-room" unicode="&#xe659;" horiz-adv-x="1069" 
d="M1027 -31h-33v497q0 41 -29 70t-70 29h-67q-13 0 -23 -10t-10 -23.5t10 -23t23 -9.5h67q13 0 23 -10t10 -23v-497h-199v828q0 41 -29 70t-70 29h-464q-41 0 -70.5 -29t-29.5 -70v-828h-33q-14 0 -23.5 -10t-9.5 -23.5t9.5 -23t23.5 -9.5h994q14 0 23.5 9.5t9.5 23
t-9.5 23.5t-23.5 10zM133 -31v828q0 13 9.5 23t23.5 10h464q13 0 23 -10t10 -23v-828h-530zM497 565h-199q-14 0 -23.5 -10t-9.5 -23.5t9.5 -23t23.5 -9.5h199q14 0 23.5 9.5t9.5 23t-9.5 23.5t-23.5 10zM497 730h-199q-14 0 -23.5 -9.5t-9.5 -23t9.5 -23.5t23.5 -10h199
q14 0 23.5 10t9.5 23.5t-9.5 23t-23.5 9.5zM497 399h-199q-14 0 -23.5 -9.5t-9.5 -23.5t9.5 -23.5t23.5 -9.5h199q14 0 23.5 9.5t9.5 23.5t-9.5 23.5t-23.5 9.5zM497 234h-199q-14 0 -23.5 -10t-9.5 -23.5t9.5 -23.5t23.5 -10h199q14 0 23.5 10t9.5 23.5t-9.5 23.5t-23.5 10
v0z" />
    <glyph glyph-name="gicon-evaluation" unicode="&#xe65a;" horiz-adv-x="1026" 
d="M536 122l-60 2h-1q-103 12 -184 69q-88 62 -121 158q-18 51 -21.5 121t1.5 126q2 50 2 75q0 23 16.5 39.5t39.5 16.5q62 -2 126 -31q17 44 48 79q71 80 127 80q37 0 79 -32q31 -23 55 -54q28 -36 42 -76q76 32 137 34h1q22 0 39 -17q16 -16 16 -39q0 -46 -2 -134v-30v-21
q-1 -85 -15 -127q-35 -102 -124 -168t-200 -71h-1zM480 176l56 -2q94 4 170 60.5t106 143.5q11 34 12 110v22v30q2 89 2 133q0 1 -1 3q-1 1 -2 1q-56 -2 -144 -42l-29 -13l-7 32q-10 46 -41 85q-20 26 -47 46.5t-46 20.5q-33 0 -88 -63q-33 -37 -47 -88l-8 -31l-28 15
q-73 36 -131 38q-3 0 -3 -4q0 -24 -2 -77q-5 -53 -2 -118t19 -111q26 -76 97 -128t164 -63zM394 -46q-15 0 -23 13q-72 127 -154 159q-45 17 -98 4t-69 -51q-4 -10 -14 -14t-20 0t-14 14t0 20q26 62 105 81q68 17 128 -6q56 -22 107 -78q40 -42 74 -103q6 -10 3 -20t-12 -16
q-6 -3 -13 -3zM632 -46q-7 0 -13 3q-9 6 -12 16t2 20q35 61 74 103q52 56 107 78q61 23 129 6q79 -19 105 -81q4 -10 0 -20t-14 -14t-20 0t-14 14q-16 38 -70 51q-52 13 -97 -4q-82 -32 -155 -159q-7 -13 -22 -13zM513 -89q-11 0 -18.5 7.5t-7.5 17.5v212q0 11 7.5 18.5
t18.5 7.5t18.5 -7.5t7.5 -18.5v-212q0 -10 -7.5 -17.5t-18.5 -7.5z" />
    <glyph glyph-name="gicon-warning" unicode="&#xe65b;" 
d="M869 -24h-714q-51 0 -76.5 44t-0.5 88l358 619q25 44 76 44t77 -44l357 -619q25 -44 -0.5 -88t-76.5 -44zM512.5 727q-25.5 0 -38.5 -22l-357 -619q-13 -22 -0.5 -44t38.5 -22h714q26 0 38.5 22t0.5 44l-358 619q-12 22 -37.5 22zM513.5 275q-13.5 0 -23.5 9.5t-10 23.5
v256q0 14 10 23.5t23.5 9.5t23.5 -9.5t10 -23.5v-256q0 -14 -10 -23.5t-23.5 -9.5zM464 158.5q0 -20.5 14.5 -35.5t35 -15t35.5 15t15 35.5t-15 35t-35.5 14.5t-35 -14.5t-14.5 -35z" />
    <glyph glyph-name="gicon-rollcall" unicode="&#xe65c;" 
d="M466.5 415q-86.5 0 -147.5 61.5t-61 148t61 147.5t147.5 61t148 -61t61.5 -147.5t-61.5 -148t-148 -61.5zM466.5 792q-69.5 0 -118.5 -49t-49 -118.5t49 -119t118.5 -49.5t119 49.5t49.5 119t-49.5 118.5t-119 49zM467 34h-334q-12 0 -26 6.5t-22 15.5q-16 18 -16 43
q0 4 1 8q19 148 132 248t265 100q117 0 216 -63q96 -62 145 -165q4 -7 1 -15t-10.5 -11.5t-15.5 -1t-12 10.5q-44 93 -132.5 148.5t-191.5 55.5q-135 0 -237 -89.5t-120 -222.5q-1 -11 6 -19t17 -8h334q8 0 14 -6t6 -14.5t-6 -14.5t-14 -6zM660 -61h-1q-7 1 -12 6l-134 140
q-5 5 -5 12.5t5.5 12.5t12.5 4.5t12 -5.5l122 -127l270 270q5 5 12 5t12.5 -5.5t5.5 -12.5t-6 -12l-282 -282q-5 -6 -12 -6v0z" />
    <glyph glyph-name="gicon-write" unicode="&#xe65d;" 
d="M1021 878l2 -2l-426 -459l-2 2zM940 550v-623q0 -15 -11 -25.5t-26 -10.5h-843q-15 0 -25.5 10.5t-10.5 25.5v807q0 15 10.5 25.5t25.5 10.5h667v3h-667q-16 0 -27.5 -11.5t-11.5 -27.5v-807q0 -16 11.5 -27.5t27.5 -11.5h843q17 0 28.5 11.5t11.5 27.5v623h-3z" />
    <glyph glyph-name="gicon-no" unicode="&#xe65e;" 
d="M512 848q-94 0 -180 -36.5t-148.5 -99t-99 -148.5t-36.5 -180t36.5 -180t99 -148.5t148.5 -99t180 -36.5t180 36.5t148.5 99t99 148.5t36.5 180t-36.5 180t-99 148.5t-148.5 99t-180 36.5zM751 159q8 -7 0 -14q-3 -3 -7 -3t-7 3l-225 225l-225 -225q-3 -3 -7 -3t-7 3
q-8 7 0 14l225 225l-225 225q-8 7 -0.5 14.5t14.5 -0.5l225 -225l225 225q7 8 14.5 0.5t-0.5 -14.5l-225 -225z" />
    <glyph glyph-name="gicon-check" unicode="&#xe65f;" 
d="M510 832q-91 0 -174 -35.5t-143 -95.5t-95.5 -143t-35.5 -174t35.5 -174t95.5 -143t143 -95.5t174 -35.5t174 35.5t143 95.5t95.5 143t35.5 174t-35.5 174t-95.5 143t-143 95.5t-174 35.5zM729 508l-279 -280l-4 -4q-8 -9 -19.5 -9t-19.5 9l-139 138q-8 8 -8 20t8 20
t20 8t20 -8l118 -119l263 265q8 8 19.5 8t20 -8t8.5 -20t-8 -20z" />
    <glyph glyph-name="gicon-addgroup" unicode="&#xe660;" 
d="M358 -57q-216 0 -328 135q-13 15 -3 36q19 42 107 84q87 41 152 41q13 0 24 -2l3 70h-3q-36 0 -66 39q-50 65 -65 223q-11 126 47 190q33 36 88 50q35 10 80 10q4 0 12 -1h8q87 0 139 -52q61 -62 60 -190q-1 -90 -20 -154q-16 -51 -42 -83q-28 -35 -58 -41l3 -68
q50 -4 101 -15q110 -25 147 -68q19 -24 16 -52q-3 -22 -38 -48q-35 -27 -91 -50q-132 -54 -273 -54zM286 236q-65 0 -151.5 -41t-105.5 -82q-9 -19 3 -33q112 -134 326 -134q140 0 271 54q56 23 90.5 49t36.5 47q4 26 -15 49q-35 43 -144 67q-56 12 -103 15h-1l-3 73h1
q29 5 58 41q59 73 61 235q1 126 -59 188q-51 51 -137 51h-8h-12q-112 0 -166 -58q-57 -63 -45 -188q14 -156 64 -221q29 -38 63 -38h4l2 1v-2l-3 -75h-2q-11 2 -25 2zM979 189q-45 82 -167 116q-61 17 -114 17h-1v2q1 4 -0.5 17t3.5 33.5t17 30.5q27 23 110 193
q31 101 -16 170q-40 59 -132 89q-46 15 -84 19v3q38 -3 85 -19q93 -30 134 -90q47 -70 16 -173v0q-84 -171 -110 -194q-25 -22 -20 -77q55 -2 113 -18q54 -15 94 -40q50 -32 74 -78z" />
    <glyph glyph-name="gicon-addvisitors" unicode="&#xe661;" 
d="M376.5 454q-84.5 0 -145 60.5t-60.5 145t60.5 145t145 60.5t145 -60.5t60.5 -145t-60.5 -145t-145 -60.5zM376.5 862q-83.5 0 -143 -59.5t-59.5 -143t59.5 -143t143 -59.5t143 59.5t59.5 143t-59.5 143t-143 59.5zM478 111h-420v11q0 83 42.5 154t116 112.5t160.5 41.5
q125 0 218 -84v4q-93 83 -218 83q-134 0 -228 -91t-94 -220v-13v-1h423v3zM731.5 -118q-105.5 0 -180 74.5t-74.5 180t74.5 180t180 74.5t180 -74.5t74.5 -180t-74.5 -180t-180 -74.5zM731.5 388q-104.5 0 -178 -74t-73.5 -178t73.5 -177.5t178 -73.5t178 73.5t73.5 177.5
t-73.5 178t-178 74zM562 126h348v-2h-348v2zM734 300h3v-348h-3v348z" />
    <glyph glyph-name="gicon-legalize-unauthorized" unicode="&#xe662;" 
d="M514 257h276v-3h-276v3zM496 152h432v-3h-432v3zM962 644h-403v-3h403q19 0 32.5 -12t13.5 -29v-599q0 -17 -13.5 -29t-32.5 -12h-890q-19 0 -32 12t-13 29v599q0 17 13 29t32 12h388v3h-388q-20 0 -34 -12.5t-14 -31.5v-599q0 -18 14 -31t34 -13h890q20 0 34.5 13
t14.5 31v599q0 19 -14.5 31.5t-34.5 12.5zM546 587h-73q-4 0 -7.5 3.5t-3.5 8.5v169q0 4 3.5 7.5t7.5 3.5h73q5 0 8.5 -3.5t3.5 -7.5v-169q0 -5 -3.5 -8.5t-8.5 -3.5zM473 776q-8 0 -8 -8v-169q0 -9 8 -9h73q9 0 9 9v169q0 8 -9 8h-73zM473 288l-45 157q-3 11 -13 11
q-9 0 -13 -8v0l-81 -152q-14 8 -30 13q38 23 38 67q0 33 -23 56t-56 23t-56 -23t-23 -56q0 -43 38 -66q-44 -14 -72 -51t-28 -84v-27h280v27q0 62 -46 104l19 35l92 -43h1q1 -1 3 -1h2v0q6 0 10 4t4 10q0 2 -1 4zM657 365q-4 -5 -8 -11q-38 19 -59 49v-60h-11v60
q-22 -29 -59 -51q-3 4 -8 10q40 21 63 50h-60v11h64v27h-56v11h56v24h11v-24h57v-11h-57v-27h65v-11h-60q23 -31 62 -47zM718 400q1 -7 2 -12q-15 -11 -29 -24q-4 -4 -6 -8l-9 9q5 5 5 13v49h-20v11h31v-60q11 9 26 22zM683 483q14 -14 25 -26l-11 -8q-10 12 -23 26z
M747 484h12q0 -19 -1 -38q8 -66 48 -89q-5 -6 -9 -12q-31 22 -43 70q-8 -44 -44 -72l-9 9q45 32 46 95v37zM855 397q1 -5 3 -12q-17 -18 -26 -28l-9 9q5 7 5 15v45h-18v11h29v-57q7 7 16 17zM824 483q17 -17 24 -25l-10 -8q-9 11 -23 25zM847 361h20v80h11v-80h23v106h-46
v11h97v-11h-39v-44h34v-10h-34v-52h41v-11h-107v11z" />
  </font>
</defs>
</svg>
